<?xml version="1.0" standalone="no"?>
<!DOCTYPE svg PUBLIC "-//W3C//DTD SVG 20010904//EN"
 "http://www.w3.org/TR/2001/REC-SVG-20010904/DTD/svg10.dtd">
<svg version="1.0" xmlns="http://www.w3.org/2000/svg"
 width="800.000000pt" height="800.000000pt" viewBox="0 0 800.000000 800.000000"
 preserveAspectRatio="xMidYMid meet">

<g transform="translate(0.000000,800.000000) scale(0.100000,-0.100000)"
fill="#000000" stroke="none">
<path d="M0 4000 l0 -4000 4000 0 4000 0 0 4000 0 4000 -4000 0 -4000 0 0
-4000z m5089 1978 c31 -29 90 -84 132 -123 42 -38 127 -118 190 -176 63 -58
127 -117 144 -131 l29 -26 -33 -38 c-33 -38 -152 -168 -295 -324 -38 -41 -90
-97 -115 -125 -25 -27 -72 -79 -105 -115 -62 -67 -196 -214 -277 -305 -24 -27
-74 -81 -110 -120 -106 -114 -272 -295 -302 -331 l-27 -33 -48 52 c-66 73
-157 171 -223 240 l-55 59 -60 -63 c-34 -35 -105 -112 -158 -171 -54 -60 -101
-108 -105 -108 -4 0 -41 37 -82 82 -41 45 -99 109 -130 143 -31 33 -136 148
-234 255 -98 107 -197 215 -219 240 -378 412 -596 653 -596 661 0 3 48 50 108
104 59 54 159 146 222 205 63 59 138 128 165 153 l50 46 1039 1 1039 0 56 -52z
m-938 -2478 c90 -25 117 -108 58 -175 -18 -20 -48 -43 -68 -51 -39 -16 -40
-14 19 -54 13 -8 50 -34 82 -58 33 -24 62 -42 64 -39 2 2 7 31 10 63 l6 60
-31 -2 c-17 -1 -34 2 -37 7 -3 5 28 9 70 9 48 0 76 -4 76 -11 0 -6 -12 -9 -27
-7 -27 3 -28 1 -40 -67 l-11 -70 34 -55 c44 -72 52 -132 28 -199 -20 -58 -73
-120 -121 -145 -42 -21 -117 -21 -154 1 -78 46 -27 157 59 127 22 -7 28 -16
30 -45 2 -30 -1 -37 -18 -42 -33 -9 -14 -37 25 -37 57 0 85 44 85 132 0 78
-42 146 -66 107 -14 -23 -97 -50 -157 -53 -185 -7 -287 89 -232 220 11 26 27
40 65 58 44 21 49 26 37 38 -51 50 -71 152 -42 208 37 72 154 108 256 80z
m-947 -12 c3 -7 23 -85 45 -173 63 -244 63 -247 71 -238 4 4 27 91 50 193 23
102 46 195 51 208 8 21 13 22 121 21 62 -1 101 -4 85 -6 l-27 -4 2 -287 c3
-262 4 -287 20 -284 9 1 19 -2 23 -8 4 -7 -38 -10 -125 -10 -87 0 -129 3 -125
10 4 6 14 9 23 8 16 -3 17 21 20 271 1 151 0 272 -3 269 -3 -3 -21 -72 -40
-154 -19 -82 -39 -171 -45 -199 -7 -27 -21 -85 -32 -128 l-20 -78 -51 3 -50 3
-29 105 c-16 58 -44 164 -63 235 -66 252 -63 255 -64 -52 -1 -267 -1 -273 19
-273 11 0 20 -4 20 -10 0 -5 -22 -10 -50 -10 -28 0 -50 5 -50 10 0 6 8 10 18
8 16 -3 17 17 20 284 l2 287 -22 4 c-13 2 28 5 90 6 82 1 114 -2 116 -11z
m1666 2 c-8 -5 -32 -10 -53 -10 l-37 0 1 -280 1 -280 46 0 c64 0 104 27 152
102 22 33 40 65 40 70 0 4 5 8 10 8 10 0 8 -52 -6 -157 l-5 -43 -225 0 c-143
0 -224 4 -224 10 0 6 11 10 25 10 l25 0 0 284 c0 274 -1 284 -19 279 -10 -3
-22 0 -25 6 -5 8 40 11 151 11 106 0 153 -4 143 -10z m-960 -1153 c0 -8 -11
-24 -25 -37 -21 -20 -25 -21 -25 -6 0 26 19 56 35 56 8 0 15 -6 15 -13z m1230
-132 l0 -145 -29 0 c-17 0 -31 6 -35 16 -3 9 -6 74 -6 145 l0 129 35 0 35 0 0
-145z m695 -2 l1 -143 -36 0 -35 0 3 146 3 145 32 -3 32 -3 0 -142z m805 2 l0
-145 -29 0 c-17 0 -31 6 -35 16 -3 9 -6 74 -6 145 l0 129 35 0 35 0 0 -145z
m160 132 c0 -7 -13 -23 -30 -35 -34 -26 -34 -26 -19 17 11 31 49 45 49 18z
m-4675 -17 c8 -26 -13 -48 -42 -42 -22 4 -33 39 -16 55 14 15 52 6 58 -13z
m1590 0 c9 -28 -10 -48 -40 -42 -18 3 -25 11 -25 26 0 29 8 36 36 36 14 0 25
-8 29 -20z m-2727 -40 l2 -45 -19 43 c-14 30 -26 42 -41 42 -21 0 -21 -4 -18
-130 l3 -130 -50 1 c-27 0 -44 3 -37 6 9 3 12 39 12 129 0 118 -1 124 -20 124
-12 0 -28 -13 -40 -32 l-20 -33 0 38 0 38 113 -3 112 -3 3 -45z m3624 -81 c-3
-98 -2 -112 15 -124 17 -13 16 -14 -13 -15 -55 0 -65 16 -65 105 -1 130 0 133
19 138 48 13 47 14 44 -104z m-3362 -51 l0 -89 -32 3 -33 3 -3 79 c-2 44 -1
85 2 91 2 7 17 10 35 7 l31 -4 0 -90z m255 -1 l0 -87 -32 0 -32 0 -3 93 -3 93
35 -6 35 -5 0 -88z m93 87 c20 -13 22 -24 22 -95 l0 -79 -35 0 -35 0 0 85 c0
74 -2 85 -17 86 -15 0 -15 2 2 9 29 13 38 12 63 -6z m108 2 c15 -12 20 -30 24
-95 l5 -81 -37 0 -38 0 0 85 c0 74 -2 85 -17 86 -15 0 -15 2 2 9 29 12 39 12
61 -4z m261 -9 c6 -6 15 -24 18 -39 7 -28 7 -28 -41 -27 -27 0 -43 3 -36 6 6
2 12 20 12 40 0 27 -4 34 -17 31 -15 -3 -19 -16 -21 -72 -3 -72 5 -92 41 -99
16 -3 14 -5 -8 -6 -49 -1 -75 10 -90 40 -30 57 -5 131 48 142 31 7 80 -1 94
-16z m154 -71 c2 -125 -6 -156 -46 -182 -20 -13 -21 -12 -17 124 3 75 9 140
14 143 6 4 19 4 29 2 17 -5 19 -16 20 -87z m220 77 c34 -20 44 -48 36 -100 -7
-44 -22 -59 -62 -68 -19 -4 -25 -3 -17 3 9 6 12 32 10 88 -3 71 -5 79 -23 79
-18 0 -20 -7 -20 -88 0 -48 -1 -87 -2 -87 -21 0 -53 25 -63 49 -38 94 54 175
141 124z m170 -78 c-2 -57 1 -80 10 -86 9 -6 -2 -9 -31 -9 l-45 0 3 87 c4 91
11 106 46 93 19 -7 21 -14 17 -85z m80 85 c25 -14 24 -46 -2 -61 -30 -15 -49
3 -31 31 17 28 15 32 -10 25 -18 -5 -20 -4 -8 4 19 13 27 14 51 1z m260 -66
c15 -41 26 -60 31 -52 11 18 10 6 -3 -31 -19 -55 -43 -40 -80 51 -19 45 -35
85 -37 89 -4 9 28 16 50 11 10 -2 25 -29 39 -68z m79 61 c0 -8 -2 -15 -4 -15
-2 0 -6 7 -10 15 -3 8 -1 15 4 15 6 0 10 -7 10 -15z m122 -54 c-5 -76 7 -107
40 -114 17 -3 15 -5 -9 -6 -66 -2 -103 34 -103 104 0 25 8 40 31 59 17 14 34
26 38 26 3 0 5 -31 3 -69z m85 46 c6 -7 15 -24 18 -39 7 -27 5 -28 -29 -28
-35 0 -36 1 -36 39 0 22 -6 42 -12 45 -7 3 1 4 17 0 17 -3 35 -11 42 -17z
m234 13 c10 -6 19 -19 19 -30 0 -21 -34 -45 -50 -35 -14 8 -13 35 1 35 6 0 9
9 6 20 -6 23 -3 24 24 10z m495 -3 c-16 -11 -18 -25 -15 -95 2 -45 3 -82 2
-82 -18 0 -54 29 -63 51 -27 64 14 135 79 138 11 1 10 -3 -3 -12z m244 -88 l0
-89 -37 0 -38 0 3 89 c3 83 5 90 25 93 43 7 47 0 47 -93z m100 84 c3 -2 7 -43
10 -89 l5 -84 -35 0 -35 0 4 51 c4 71 -6 119 -27 120 -14 0 -14 2 3 9 19 8 64
4 75 -7z m582 5 c-16 -16 -16 -150 0 -166 15 -15 0 -16 -35 -3 -48 19 -61 117
-19 153 27 24 77 39 54 16z m238 -7 c-13 -25 -13 -151 0 -151 6 0 10 -4 10
-10 0 -15 -42 -12 -64 5 -23 18 -34 102 -16 134 11 21 41 39 68 40 9 1 10 -4
2 -18z m950 4 c-8 -10 -11 -41 -8 -95 2 -64 0 -79 -10 -75 -8 3 -18 5 -23 5
-13 0 -39 55 -39 82 0 34 22 71 50 85 33 17 45 16 30 -2z m93 -18 c27 -31 23
-102 -8 -132 -13 -14 -34 -25 -47 -24 -13 0 -17 3 -10 6 15 6 17 154 1 170 -7
7 -2 9 18 5 15 -3 36 -14 46 -25z m160 26 c-7 -2 -21 -2 -30 0 -10 3 -4 5 12
5 17 0 24 -2 18 -5z m297 -12 c-5 -11 -10 -48 -10 -82 0 -47 4 -65 18 -75 15
-12 14 -13 -16 -14 -43 0 -61 19 -68 72 -7 53 8 96 38 108 39 15 50 13 38 -9z
m265 -82 l0 -89 -35 0 -35 0 3 89 c3 89 4 90 30 93 15 2 29 2 32 0 3 -2 5 -44
5 -93z m222 74 c7 -9 13 -45 13 -80 0 -38 4 -63 11 -63 5 0 7 -4 4 -10 -9 -14
-58 -13 -73 2 -7 7 -12 41 -12 85 0 58 -3 74 -17 83 -14 9 -10 10 22 6 22 -3
46 -13 52 -23z m176 20 c-7 -2 -21 -2 -30 0 -10 3 -4 5 12 5 17 0 24 -2 18 -5z
m-6058 -80 c-2 -43 2 -84 7 -90 8 -10 4 -13 -14 -13 -51 0 -63 28 -59 138 1
41 2 42 35 42 l33 0 -2 -77z m2156 -7 c-2 -58 0 -81 10 -87 9 -6 -2 -9 -31 -9
l-45 0 3 91 3 90 32 -3 32 -3 -4 -79z m229 28 c40 -14 50 -23 55 -46 8 -34
-16 -78 -42 -78 -15 0 -14 2 2 14 16 11 17 17 7 29 -7 8 -25 17 -40 20 -59 12
-84 63 -51 104 13 15 14 15 17 -5 2 -14 17 -26 52 -38z m50 34 c0 -12 -1 -19
-3 -17 -1 2 -9 12 -16 22 -12 14 -11 17 3 17 10 0 16 -8 16 -22z m140 -62 c0
-58 4 -86 13 -89 6 -3 -8 -6 -33 -6 l-45 -1 3 90 3 90 30 0 29 0 0 -84z m240
64 c30 -30 28 -103 -5 -135 -28 -28 -61 -34 -51 -9 3 9 6 49 6 90 0 81 11 93
50 54z m930 -2 c31 -33 28 -102 -6 -133 -15 -14 -36 -25 -48 -24 -12 0 -15 3
-8 6 8 3 12 31 12 89 0 92 10 105 50 62z m405 -68 c0 -85 -1 -89 -20 -84 -53
16 -73 99 -34 148 11 14 28 26 37 26 15 0 17 -12 17 -90z m95 68 c29 -32 27
-97 -5 -132 -27 -29 -61 -36 -51 -10 3 9 6 49 6 90 0 81 11 93 50 52z m143
-28 c53 -19 62 -26 71 -53 12 -33 -15 -77 -47 -76 l-22 0 23 9 c39 16 22 42
-35 54 -17 4 -37 14 -44 22 -16 19 -15 60 2 81 13 15 14 15 17 -4 2 -13 16
-26 35 -33z m67 28 c0 -17 -3 -19 -9 -9 -5 7 -15 17 -22 22 -10 6 -8 9 9 9 16
0 22 -6 22 -22z m588 6 c-2 -10 16 -24 52 -42 47 -23 55 -32 58 -58 2 -20 -4
-36 -18 -49 -18 -16 -20 -17 -14 -2 8 22 -12 47 -38 47 -36 0 -68 30 -68 64 0
18 5 37 12 44 16 16 19 15 16 -4z m102 -6 c0 -12 -1 -19 -3 -17 -1 2 -9 12
-16 22 -12 14 -11 17 3 17 10 0 16 -8 16 -22z m644 -5 c8 -28 -7 -45 -34 -40
-19 3 -25 34 -10 52 19 23 37 18 44 -12z m269 -33 c42 -20 53 -30 55 -53 4
-29 -21 -67 -42 -67 -6 0 -4 5 4 10 20 13 1 44 -30 48 -43 7 -70 32 -70 66 0
37 23 69 28 39 2 -11 24 -28 55 -43z m47 38 c0 -12 -1 -19 -3 -17 -1 2 -9 12
-16 22 -12 14 -11 17 3 17 10 0 16 -8 16 -22z m-4339 -65 c-12 -20 -14 -14 -5
12 4 9 9 14 11 11 3 -2 0 -13 -6 -23z m4034 -48 c1 -42 -1 -45 -25 -45 -50 0
-67 47 -28 74 40 28 53 21 53 -29z m-2577 3 c14 -14 16 -54 3 -62 -5 -3 -8 2
-7 12 1 12 -5 16 -21 14 -17 -2 -23 2 -23 16 0 32 25 43 48 20z m-908 -18 c9
-16 8 -20 -5 -20 -8 0 -15 9 -15 20 0 11 2 20 5 20 2 0 9 -9 15 -20z m2713 0
c16 -19 16 -20 -1 -20 -11 0 -18 8 -19 20 -1 11 -1 20 0 20 2 0 10 -9 20 -20z
m964 -19 c-10 -4 -27 17 -27 33 0 5 8 1 19 -10 10 -10 14 -21 8 -23z m-1642 7
c6 -4 0 -8 -12 -8 -16 0 -21 4 -16 15 3 9 8 12 12 8 3 -4 11 -11 16 -15z
m-3459 -53 c4 -8 1 -21 -5 -29 -6 -7 -8 -16 -4 -19 3 -4 -1 -7 -11 -7 -21 0
-38 40 -24 58 14 17 37 15 44 -3z"/>
<path d="M2947 5781 c-34 -32 -113 -105 -175 -162 -62 -57 -111 -108 -110
-115 2 -6 44 -56 94 -110 50 -55 167 -182 260 -284 239 -262 238 -261 374
-410 115 -125 143 -155 244 -265 l37 -40 65 70 c36 39 82 89 101 112 l35 43
-39 42 c-50 55 -214 233 -469 513 -111 121 -226 247 -257 280 l-56 60 62 60
c34 33 111 106 172 163 l109 102 -192 0 -192 0 -63 -59z"/>
<path d="M3556 5747 c-55 -51 -135 -126 -178 -167 l-79 -75 28 -30 c52 -56
258 -281 353 -385 173 -191 311 -340 315 -340 1 0 47 48 100 108 54 59 123
134 154 167 31 33 96 105 146 160 49 55 115 127 146 160 105 113 139 152 139
162 0 10 -15 25 -226 221 l-122 112 -338 0 -339 -1 -99 -92z m606 -4 c3 -7 44
-46 186 -176 l53 -48 -54 -57 c-29 -31 -82 -89 -118 -127 -35 -39 -106 -116
-157 -172 -51 -56 -109 -120 -129 -143 l-36 -41 -59 58 c-32 31 -58 62 -58 68
1 5 20 31 43 56 216 236 307 338 307 345 0 5 -55 62 -122 126 l-123 117 132 1
c72 0 133 -3 135 -7z"/>
<path d="M4650 5787 c31 -28 107 -100 169 -158 109 -101 114 -107 100 -127
-14 -19 -174 -196 -413 -457 -56 -60 -128 -139 -161 -175 -33 -36 -96 -106
-140 -154 -44 -48 -81 -93 -82 -99 -1 -7 42 -59 97 -117 l100 -105 38 41 c20
22 120 132 222 244 102 112 196 215 208 229 13 15 63 69 110 121 48 52 114
124 147 160 189 206 261 284 273 296 19 20 15 28 -41 77 -29 25 -73 65 -97 89
-25 24 -80 76 -124 116 l-78 72 -192 0 -191 0 55 -53z"/>
<path d="M4010 3475 c-7 -9 -15 -38 -18 -65 -4 -48 -3 -52 40 -95 50 -50 66
-54 93 -25 26 29 27 150 1 179 -23 26 -97 29 -116 6z"/>
<path d="M3957 3173 c-4 -3 -7 -42 -7 -85 0 -117 27 -161 106 -173 51 -8 115
9 151 40 l28 23 -24 26 c-13 14 -42 38 -65 53 -22 15 -71 49 -107 75 -71 51
-72 52 -82 41z"/>
</g>
</svg>
